<svg width="1415" height="208" viewBox="0 0 1415 208" fill="none" xmlns="http://www.w3.org/2000/svg">
<path d="M126.636 16.4951H163.652L164.172 22.7295C156.769 23.7686 150.924 29.3535 150.924 38.5752V202.747H135.987C131.571 191.058 125.467 179.628 117.804 168.588C110.141 157.548 101.958 147.547 93.5156 138.845C84.9434 130.143 76.501 121.57 68.0586 112.868C59.6162 104.296 51.4336 94.8145 43.7705 84.2939C36.1074 73.9033 30.1328 63.2529 25.8467 52.4727H24.8076V180.667C24.8076 189.889 30.6523 195.604 38.0557 196.643L37.5361 202.747H0.649414L0 196.643C7.14355 195.604 13.1182 189.889 13.1182 180.667V38.5752C13.1182 29.3535 7.14355 23.7686 0 22.7295L0.649414 16.4951H30.1328C35.0684 28.0547 41.6924 39.6143 50.0049 51.3037C58.1875 63.123 66.6299 73.6436 75.332 82.9951C84.0342 92.4766 92.4766 101.698 100.919 110.66C109.231 119.752 116.765 129.104 123.648 138.585C130.532 148.196 135.338 157.288 138.325 165.99H139.234V38.5752C139.234 29.3535 133.52 23.7686 126.116 22.7295L126.636 16.4951ZM258.262 190.538C268.913 190.538 278.264 187.421 286.447 181.187C294.629 174.952 300.474 167.679 303.981 159.366L310.085 161.574C307.618 173.783 300.734 184.434 289.564 193.655C278.394 203.007 264.496 207.553 247.871 207.553C227.87 207.553 210.985 200.539 197.087 186.382C183.19 172.225 176.306 154.171 176.306 131.961C176.306 110.79 183.06 93.3857 196.568 79.6182C209.946 65.9805 226.701 59.0967 246.703 59.0967C262.159 59.0967 274.757 62.6035 284.498 69.6172C294.24 76.6309 301.123 85.2031 305.02 95.334C307.488 101.698 310.345 105.465 313.462 106.504L314.891 115.206L200.464 144.819C206.569 173.913 227.48 190.538 258.262 190.538ZM244.884 70.2666C231.376 70.2666 220.336 75.7217 211.634 86.6318C202.932 97.542 198.646 110.66 198.646 126.116C198.646 129.493 198.776 131.961 198.906 133.649L286.966 110.66C285.797 99.8799 281.511 90.3984 274.108 82.3457C266.704 74.293 256.963 70.2666 244.884 70.2666ZM350.144 35.458C340.923 35.458 334.169 28.4443 334.169 20.002C334.169 11.1699 340.793 3.7666 350.144 3.7666C354.95 3.7666 358.846 5.3252 361.964 8.57227C365.081 11.8193 366.639 15.5859 366.639 20.002C366.639 28.4443 359.626 35.458 350.144 35.458ZM374.043 202.747H326.895L326.376 196.902C333.519 195.474 339.494 189.759 339.494 180.927V97.4121C339.494 88.1904 333.519 82.4756 326.376 81.4365L326.895 75.332C330.142 74.9424 334.688 73.5137 340.533 70.7861C346.378 68.0586 352.222 64.1621 358.327 59.0967H361.314V180.927C361.314 189.759 367.419 195.474 374.562 196.902L374.043 202.747ZM431.246 202.747H384.099L383.579 196.902C390.723 195.474 396.697 189.759 396.697 180.927V38.5752C396.697 29.3535 390.723 23.7686 383.579 22.7295L384.099 16.4951C397.087 14.1572 409.296 8.70215 420.596 0L423.194 1.16895C420.206 11.4297 418.648 27.2754 418.778 48.4463V180.927C418.778 189.759 424.622 195.474 431.766 196.902L431.246 202.747ZM600.983 207.553C592.671 207.553 582.93 205.994 571.89 203.007C560.72 200.02 552.277 198.461 546.433 198.461C541.757 198.461 536.821 200.279 534.743 201.708L532.795 202.747H530.717L512.923 146.638L520.326 143.391C538.64 178.719 565.266 196.383 600.464 196.383C614.491 196.383 626.311 192.746 636.052 185.343C645.663 177.939 650.469 168.588 650.469 157.028C650.469 148.196 648.131 141.442 641.507 135.857C638.26 133.13 635.143 130.792 632.415 128.844C629.558 127.025 625.271 125.207 619.427 123.259C613.582 121.44 609.166 120.142 606.049 119.232C602.802 118.323 597.736 117.024 590.853 115.206C584.229 113.518 579.423 112.219 576.306 111.31C573.188 110.53 568.772 109.102 562.928 107.023C557.083 105.075 552.667 103.257 549.68 101.568C546.692 100.01 543.056 97.8018 539.029 94.9443C530.717 89.3594 527.729 83.6445 524.742 74.9424C523.184 70.6562 522.404 65.8506 522.404 60.6553C522.404 46.7578 528.509 35.1982 540.718 25.8467C552.797 16.4951 567.733 11.8193 585.268 11.8193C594.749 11.8193 604.88 13.248 615.66 15.9756C626.44 18.833 633.324 20.2617 636.571 20.2617C639.688 20.2617 643.195 18.7031 645.144 17.6641L646.442 16.4951H649.3L665.795 67.9287L658.911 70.5264C643.975 40.7832 618.777 22.9893 586.566 22.9893C573.578 22.9893 563.188 25.8467 555.395 31.5615C547.602 37.4062 543.705 44.5498 543.705 52.9922C543.705 59.876 546.692 65.8506 552.667 70.7861C558.642 75.8516 564.356 79.2285 569.812 81.1768C575.267 83.125 584.488 85.8525 597.477 89.2295C598.646 89.6191 599.555 89.8789 600.074 90.0088C606.179 91.5674 610.595 92.7363 613.452 93.5156C616.31 94.4248 620.466 95.7236 625.921 97.4121C631.246 99.1006 635.402 100.789 638.39 102.218C641.247 103.776 644.754 105.725 649.04 108.062C657.482 112.738 660.989 117.804 665.795 124.558C670.471 131.312 672.159 139.624 672.159 149.495C672.159 166.38 665.535 180.277 652.157 191.188C638.779 202.098 621.765 207.553 600.983 207.553ZM823.138 193.136L825.866 198.201C820.8 204.436 813.786 207.553 804.825 207.553C791.187 207.553 782.745 199.63 779.757 183.654H778.718C774.172 191.837 767.548 197.812 759.106 201.708C750.534 205.604 741.831 207.553 732.999 207.553C719.362 207.553 708.062 204.046 699.36 197.162C690.528 190.278 686.112 180.797 686.112 168.718C686.112 152.742 694.944 140.014 711.179 131.312C727.414 122.609 745.598 117.414 771.575 112.868L769.886 98.9707C768.977 90.5283 766.12 83.5146 761.314 78.1895C756.508 72.8643 750.274 70.2666 742.87 70.2666C735.597 70.2666 729.493 72.2148 724.687 76.2412C719.751 80.2676 717.413 85.2031 717.543 91.0479C718.193 99.8799 712.868 104.815 706.114 104.815C698.71 104.815 694.164 100.14 694.164 92.3467C694.294 84.0342 698.84 76.3711 707.672 69.4873C716.374 62.6035 728.194 59.0967 743.13 59.0967C755.729 59.0967 766.769 62.8633 776.25 70.5264C785.732 78.1895 791.187 88.9697 792.875 102.997L801.058 177.68C802.487 190.019 806.513 196.253 813.267 196.383C816.124 196.383 819.371 195.344 823.138 193.136ZM740.662 194.824C750.663 194.824 759.106 191.317 766.249 184.174C773.393 177.03 777.03 168.978 777.16 159.886L772.614 121.57C753.521 124.817 738.195 130.013 726.895 137.416C715.595 144.819 709.88 154.301 709.88 165.99C709.88 174.692 712.738 181.576 718.582 186.901C724.297 192.227 731.701 194.824 740.662 194.824ZM945.932 117.674L950.219 180.927C950.608 189.759 957.102 195.474 964.506 196.902L963.986 202.747H916.709L916.059 196.902C923.463 195.474 928.788 189.759 928.138 180.927L923.593 116.505C921.904 87.8008 908.526 72.085 887.875 72.085C877.354 72.085 868.522 75.7217 861.249 82.9951C853.846 90.2686 850.209 99.1006 850.209 109.621V180.927C850.209 189.759 856.054 195.474 863.457 196.902L862.678 202.747H815.79L815.27 196.902C822.414 195.474 828.388 189.759 828.388 180.927V97.6719C828.388 88.4502 822.414 82.7354 815.27 81.6963L815.79 75.8516C824.752 74.293 835.142 68.708 846.702 59.0967H849.559L849.949 82.2158H850.988C860.729 66.7598 874.627 59.0967 892.68 59.0967C923.463 59.0967 943.465 78.8389 945.932 117.674ZM1106.39 48.4463V180.667C1106.39 189.889 1112.63 195.604 1119.77 196.643L1119.25 202.747C1107.69 203.916 1098.08 205.604 1090.16 207.553H1087.04L1085.74 184.174H1083.79C1077.04 192.356 1070.16 198.201 1063.01 201.968C1055.87 205.734 1047.17 207.553 1037.04 207.553C1017.94 207.553 1001.97 200.279 989.238 185.862C976.38 171.445 970.016 153.392 970.016 131.961C970.016 110.79 975.99 93.3857 987.94 79.6182C999.889 65.9805 1015.34 59.0967 1034.31 59.0967C1053.92 59.0967 1070.29 67.4092 1083.27 84.1641H1084.57V38.835C1084.57 29.6133 1078.73 23.7686 1071.58 22.7295L1072.1 16.4951C1084.44 14.2871 1096.52 8.83203 1108.08 0L1110.94 1.16895C1107.95 11.4297 1106.39 27.2754 1106.39 48.4463ZM1042.36 195.863C1054.7 195.863 1064.83 190.928 1072.49 181.057C1080.16 171.186 1084.05 158.587 1084.05 143.391C1084.05 131.312 1082.1 119.882 1078.08 108.972C1074.05 98.0615 1068.08 88.9697 1060.02 81.6963C1051.97 74.4229 1042.75 70.7861 1032.23 70.7861C1020.54 70.7861 1010.8 75.8516 1003.01 85.8525C995.213 95.8535 991.317 108.452 991.317 123.519C991.317 142.871 996.122 159.756 1005.73 174.173C1015.22 188.59 1027.42 195.863 1042.36 195.863ZM1204.77 207.553C1183.34 207.553 1165.67 200.149 1151.91 185.343C1138.01 170.536 1131.13 152.482 1131.13 131.182C1131.13 110.4 1137.88 93.126 1151.26 79.4883C1164.64 65.8506 1181.52 59.0967 1202.17 59.0967C1223.08 59.0967 1240.36 66.2402 1253.86 80.6572C1267.24 95.0742 1274 112.998 1274 134.688C1274 155.859 1267.63 173.264 1254.9 186.901C1242.05 200.669 1225.42 207.553 1204.77 207.553ZM1209.32 195.604C1221.91 195.604 1232.3 190.538 1240.49 180.537C1248.67 170.536 1252.7 158.067 1252.7 143.131C1252.7 124.298 1247.5 107.543 1237.11 92.8662C1226.72 78.1895 1213.6 70.7861 1197.63 70.7861C1184.51 70.7861 1173.73 75.7217 1165.28 85.5928C1156.84 95.4639 1152.69 108.062 1152.69 123.259C1152.69 141.572 1158.01 158.197 1168.66 173.134C1179.31 188.07 1192.82 195.604 1209.32 195.604ZM1395.75 207.553H1393.67C1387.57 204.306 1377.44 202.747 1363.28 202.747H1285.87L1285.35 194.824L1375.62 75.8516V74.5527H1346.53C1332.5 74.5527 1322.11 76.3711 1315.48 80.1377C1308.73 83.9043 1302.76 90.918 1297.69 101.438L1291.98 98.9707L1300.55 63.9023H1405.36L1405.88 71.5654L1315.22 190.278V191.837H1352.37C1367.31 191.837 1381.46 185.603 1389.78 177.68C1398.09 169.887 1404.45 161.574 1406.92 155.989L1409.13 151.963L1414.71 154.301L1395.75 207.553Z" fill="black"/>
</svg>
