<svg preserveAspectRatio="none" width="100%" height="100%" overflow="visible" style="display: block;" viewBox="0 0 76.3594 54" fill="none" xmlns="http://www.w3.org/2000/svg">
<g id="Branding Idea 1 [Vectorized]">
<path id="Vector" d="M9.35958 0.851543C9.43277 0.841513 9.52437 0.821405 9.59773 0.828271C10.0222 0.867996 9.92426 1.75413 10.0289 2.04437C10.2035 2.52873 10.9141 3.09845 11.2604 3.48057C11.2896 3.70347 11.3111 4.00172 11.4148 4.20159C11.5165 4.39754 11.7232 4.52938 11.8326 4.72542C11.9977 5.02167 12.0329 5.37611 12.2328 5.65824C12.4696 5.99258 12.8141 6.24845 13.0303 6.59834C13.8809 7.97502 14.6538 9.43566 15.5815 10.7637C15.8018 11.079 16.1678 11.2789 16.3835 11.5965C16.7059 12.0714 16.9155 12.596 17.2766 13.0523C17.7806 13.6892 18.4954 14.1429 19.0029 14.7893C19.2336 15.0831 19.4077 15.4273 19.587 15.7537C19.9612 16.4346 20.3419 16.8648 20.9389 17.363C21.0203 17.7728 21.1443 18.1799 21.2511 18.5841C22.4781 19.5127 22.6295 20.1787 23.4082 21.3881C23.6124 21.705 23.9298 21.9073 24.1539 22.2047C24.5994 22.7958 24.9003 23.505 25.3615 24.0919C25.6535 24.4634 26.1651 24.6219 26.4747 24.9866C27.3199 25.9821 27.9325 27.1706 28.6817 28.2131C28.9074 28.5272 29.2354 28.7631 29.4616 29.0778C29.6888 29.3941 29.7399 29.7015 29.8564 30.0575C30.0212 30.5616 30.5029 31.059 30.9315 31.3589C30.9716 31.7521 31.0387 32.0829 31.208 32.4409C31.4241 32.5476 31.7218 32.6384 31.8897 32.8122C32.1343 33.0655 32.2402 33.5266 32.377 33.8463C32.5935 34.3524 33.0962 35.3202 33.6136 35.5509C33.773 35.622 33.9277 35.6177 34.0899 35.5559C34.2239 35.4184 34.2435 34.9981 34.2384 34.8035C34.0998 29.3978 34.3245 23.9835 34.1907 18.5798C34.1677 17.6517 33.8795 16.715 33.8939 15.7676C33.9037 15.1233 34.0445 14.5814 34.1376 13.9491C34.16 13.4202 34.219 12.7576 34.1648 12.2322C33.9836 10.4742 33.8284 8.73682 33.8117 6.96405C33.8083 6.60087 33.8575 6.10037 33.8501 5.77442C33.8144 4.19927 33.7683 3.01618 35.7677 3.04462C36.4513 3.05033 37.1693 2.92466 37.8434 3.05702C38.3277 3.15209 38.5732 3.36958 38.5914 3.87236C38.6316 4.99024 38.6745 6.09478 38.6118 7.21127C38.6021 7.38424 38.7633 7.71441 38.8389 7.86987C39.3134 8.59022 38.9958 9.05798 38.7615 9.78102C38.5281 10.6231 38.9646 11.7494 39.0696 12.6297C39.282 14.4105 39.2622 16.2329 39.2164 18.0243C39.2283 18.7612 39.4025 19.5347 39.3976 20.2693C39.3918 21.1331 39.2759 21.9968 39.3146 22.8648C39.3524 23.7136 39.7208 24.5088 39.7525 25.3561C39.7722 25.8855 39.7135 26.4288 39.7152 26.9594C39.792 28.8072 39.7141 30.6572 39.8352 32.5035C39.8641 32.9435 40.0364 33.4439 40.251 33.8268L39.8774 34.3152C39.8453 34.5468 39.8436 34.8208 39.8358 35.0577C40.0987 35.4197 40.2917 35.8276 40.405 36.2605C40.6226 37.08 40.5021 38.6083 40.5951 39.5129C40.6214 39.9594 40.4586 40.3301 40.4957 40.7834C40.5584 41.5482 40.2511 43.4839 40.3398 44.1085C40.3585 44.2402 39.4292 46.5716 39.3986 46.6239C37.9998 47.4565 37.5301 47.4798 36.0235 46.6959C35.6105 46.481 35.6209 45.572 35.32 45.348C33.9331 44.3152 32.7762 43.0696 31.6125 41.7977C30.7076 40.8376 29.4391 40.1846 29.1949 38.7528C28.6817 38.3295 28.217 37.7469 27.8779 37.1789C27.2572 36.139 26.5248 35.8415 26.3559 34.5608C25.4215 33.545 24.4574 31.9716 23.7305 30.7855C23.4944 30.4003 22.9374 29.9259 22.6485 29.5422C22.4019 29.2146 22.2787 28.7672 22.0716 28.4553C21.8142 28.0678 21.4616 27.7439 21.2077 27.3281C21.0096 27.0037 20.926 26.3418 20.7614 26.0904C20.0762 25.0433 19.4608 23.9712 18.7439 22.9426C18.5176 22.6179 18.3106 22.1703 18.0914 21.8351C17.7052 21.2448 17.0311 20.8616 16.5716 20.3486C16.1654 19.9884 15.8851 18.8939 15.5554 18.5689C14.4117 17.4412 13.7759 16.1558 12.8769 14.8576C12.5843 14.4353 11.9544 14.0317 11.6287 13.6157C11.3056 13.2029 11.2676 12.8376 10.7932 12.5673C10.4696 12.4011 9.95569 12.2453 9.79179 12.7368C9.41004 13.8917 9.44432 15.1109 9.46035 16.3085C9.46747 17.1933 10.3778 17.0521 10.9848 17.264C11.9003 17.5835 11.8019 18.5575 12.2788 19.3708C12.8537 20.351 14.2876 21.1675 14.6565 22.189C15.3994 24.2463 17.0395 25.5522 18.3155 27.253C18.7379 27.7209 18.6389 28.4229 19.0153 28.9C19.3332 29.3029 19.699 29.6889 20.0398 30.0743C20.6719 30.7891 21.2684 31.5394 21.8609 32.2873C22.1124 32.6046 22.311 33.01 22.5579 33.3356C23.2472 33.9093 23.7653 34.6954 24.2633 35.435C24.4014 35.64 24.4327 36.1354 24.6196 36.3679C24.8873 36.863 26.2744 37.8599 26.4634 38.2992C27.1349 39.8592 28.3395 40.5487 29.1316 41.9681C29.2265 42.138 29.2407 42.4646 29.3612 42.6001C29.7462 43.0328 30.2014 43.3853 30.5949 43.8097C31.4285 44.8564 32.237 45.8864 33.1524 46.866C33.2471 46.9673 33.3716 47.5682 33.4966 47.7578C33.7761 48.1819 34.3985 48.6542 34.168 49.2151C34.0472 49.4805 33.5929 49.9754 33.2728 49.7107C32.3988 48.9882 31.9401 47.8275 31.2103 46.9522C30.8638 46.5366 30.6103 45.9703 30.2582 45.546C29.3257 44.4221 28.2947 43.8119 27.8918 42.347C26.7462 41.3978 26.7331 40.7698 25.9099 39.6634C25.3085 38.8552 24.4761 38.0683 23.8205 37.2279C23.1625 36.3847 22.7307 35.6276 22.1294 34.7735C21.8024 34.309 20.8798 33.6167 20.494 33.0854C20.3234 32.9266 20.1271 32.1693 19.9668 32.0681C18.9465 31.424 18.8882 30.8911 18.3434 30.0302C17.6938 29.0037 16.6352 28.1782 16.1943 26.9438C16.0588 26.5646 15.2978 25.9631 15.0557 25.585C14.3908 24.7435 10.8896 19.7554 10.2518 19.5413L10.18 19.5806C9.76004 20.3964 10.2022 24.45 10.0066 25.5938C9.77597 25.8852 9.6685 26.0153 9.49537 26.3469C9.5036 27.3341 9.4255 28.2636 9.40899 29.2413L9.29946 37.2438C9.28295 38.5382 9.43225 39.8895 9.39354 41.1742C9.35937 42.3077 9.26049 43.4613 9.24103 44.5997C9.23713 44.828 9.31728 45.0643 9.32857 45.2923C9.24704 46.7956 9.57864 48.4591 9.26313 49.9291C8.94371 50.2721 8.50512 50.7057 8.01849 50.4678C7.02909 49.9841 5.40144 50.1404 4.69443 49.2906C4.44134 48.9863 4.92875 48.3208 4.93314 47.9065C4.94847 46.4579 5.0109 45.0371 4.86976 43.5927C4.86616 42.371 4.97644 41.09 4.98695 39.8764C5.01333 36.8281 4.86955 33.7726 4.98081 30.7255C4.99055 30.4588 5.02451 29.8497 5.13253 29.6276C5.83856 28.254 5.1197 27.112 5.07905 25.7654C4.93667 21.0496 4.93896 16.3103 4.98861 11.5978C5.01016 9.55257 4.81143 7.53321 5.11972 5.49904C5.13639 5.38909 5.82527 3.43216 5.90031 3.38681C6.77206 2.85984 6.82548 2.029 7.61001 1.5456C8.37429 1.22766 8.65404 1.2966 9.35958 0.851543Z" fill="var(--fill-0, white)"/>
<path id="Vector_2" d="M65.4102 3.02053L65.4524 3.01785C66.1854 2.97654 66.7955 3.1073 67.4837 3.342C67.7136 3.42037 67.9631 3.53054 68.1998 3.57537C68.6966 3.66939 69.1775 3.61296 69.6775 3.75832C70.2602 3.92778 70.8181 4.22203 71.404 4.36709C71.762 4.45582 72.3463 4.324 72.6237 4.58773C73.4005 5.32681 73.372 6.73039 73.4052 7.70423C73.5661 7.93996 73.8424 8.14135 73.9015 8.43139C73.9653 8.74595 73.5735 9.32798 73.4074 9.59392C73.3198 9.73372 73.2149 9.78576 73.0572 9.82199C72.2641 9.6592 71.4704 9.08761 70.7459 8.72791C70.392 8.55247 70.0134 8.41641 69.6706 8.22208C69.5024 8.1269 69.3479 7.99538 69.1992 7.87272C67.3999 8.03372 66.4021 7.17209 64.7173 6.92187C63.8208 6.78866 62.5889 6.83802 61.8401 7.39869C61.1371 7.92535 60.5824 8.26527 60.4516 9.19588C59.8588 9.79626 59.7049 10.5691 59.225 11.2401C58.9544 11.6189 58.4999 11.8575 58.2932 12.2852C58.029 12.8327 57.9092 13.4861 57.7558 14.073C58.2831 14.5162 59.1701 15.6052 59.4148 16.2236C59.5904 16.6674 59.6563 17.1541 59.8203 17.604C59.9306 17.9077 60.142 18.1675 60.2517 18.4675C60.3567 18.7533 60.3509 19.1114 60.3973 19.413C60.6319 20.9426 61.7135 21.0118 62.8684 21.6385C63.2275 21.8331 63.497 22.1771 63.8355 22.4034C64.2005 22.6471 64.5912 22.7432 64.9925 23.0399C65.7714 23.6151 66.8488 24.568 67.0001 25.5717C67.2084 25.7789 67.3904 26.0187 67.6171 26.2066C67.9478 26.4801 68.3385 26.6993 68.6908 26.946C69.3088 27.3793 69.9216 27.8653 70.4759 28.3775C70.7348 28.6168 70.9473 28.9008 71.1872 29.1581C71.5274 29.5222 71.9181 29.8695 72.2156 30.2693C72.551 30.7198 72.8162 31.2284 73.1843 31.6535C73.5592 32.0872 74.4589 32.8678 74.6688 33.3558C74.7505 33.5459 74.7626 33.7787 74.8217 33.9784C75.0579 34.7779 75.3554 35.488 75.4788 36.3294C75.5711 36.9614 75.4498 37.5502 75.4693 38.1778C75.4798 38.5211 75.5331 38.8628 75.5405 39.2061C75.5484 39.5356 75.5072 39.8669 75.5267 40.196C75.5637 40.8202 75.8611 41.5654 75.6201 42.1758C75.4803 42.5296 75.2826 42.661 74.9414 42.8025C74.7041 45.1114 74.6097 44.8671 73.3172 46.6703C73.0013 47.1109 72.7777 47.6019 72.4766 48.0488C72.1649 48.5118 71.7446 49.0714 71.347 49.4621C70.8017 49.9982 70.1051 50.4129 69.5076 50.8928C68.9787 51.3182 68.0622 52.3258 67.4679 52.5535C67.0107 52.7285 66.3747 52.7087 65.8869 52.7602C64.7099 52.8836 63.382 53.1378 62.1987 53.0123C61.1329 52.8994 59.9348 52.4208 58.8985 52.6241C57.7774 52.6435 57.3814 52.57 56.4664 51.8682L55.7371 51.8929C54.895 51.3839 54.1556 50.6447 53.3583 50.0635C52.7882 49.6483 52.1306 49.3465 51.5782 48.9158C51.3684 48.7522 51.0789 48.5259 50.9734 48.2786C50.7878 47.8439 50.6729 47.3889 50.7077 46.9119C50.7828 45.8829 51.6316 45.9252 52.2617 45.3824L52.2925 45.3555C52.8162 44.904 53.1231 44.2101 53.7047 43.8281C53.8492 43.7334 53.9294 43.7557 54.0881 43.7913C54.2748 43.9417 54.3586 44.256 54.462 44.4735C54.6861 44.9476 55.234 45.3704 55.5831 45.7736C56.3299 46.6352 56.814 47.1842 57.8011 47.772C58.0485 47.9194 58.3053 48.092 58.5922 48.1493C58.995 48.2299 59.4127 48.0949 59.8225 48.1906C60.316 48.3058 60.826 48.6219 61.3148 48.7958C62.4924 48.4288 63.5297 48.9028 64.8559 48.3571C65.0732 47.8221 65.3369 47.1092 65.7904 46.7357C66.0335 46.5355 66.3441 46.3343 66.5392 46.0907C66.8435 45.7112 67.4415 44.802 67.6788 44.368C67.8592 44.0375 67.981 43.669 68.1344 43.3244C68.4635 42.5838 68.897 41.8217 69.0678 41.0262C69.1454 40.6668 69.1411 40.2941 69.1543 39.9283C69.1733 39.426 69.216 38.9049 69.1902 38.4032C69.1348 37.3413 68.9903 36.5835 69.2002 35.5063C69.0262 35.0426 68.7003 34.6437 68.5115 34.1868C68.3723 33.8496 68.3818 33.4472 68.2832 33.0955C68.1323 32.5615 67.3055 31.0981 66.901 30.7071C66.4786 30.2991 65.9839 29.9844 65.6364 29.5005C65.2451 28.956 65.0331 28.2008 64.5617 27.7292C64.2316 27.3985 63.6852 27.3484 63.294 27.091C62.1749 26.3553 61.2057 25.3902 60.1236 24.6038C59.6052 24.227 58.9719 24.0447 58.4587 23.6489C57.7537 23.1054 57.094 22.3571 56.5097 21.6861C56.1126 21.23 55.735 20.7454 55.2514 20.3763C54.9936 20.1794 54.6809 20.0367 54.3945 19.883C54.0375 19.3077 54.1039 18.6543 53.8893 18.0327C53.5908 17.17 53.0023 16.422 52.8584 15.5025C52.656 14.209 52.7819 13.2805 52.7597 12.0188C52.7497 11.4301 52.592 10.7214 52.7476 10.1536C52.9 9.5975 53.3203 9.32824 53.5961 8.86117C53.9932 8.18949 54.1572 7.41657 54.6297 6.77205C55.5631 5.49793 56.7032 4.80002 58.1402 4.18823C58.4677 4.04886 58.8237 3.86318 59.1675 3.77648C59.6468 3.65552 60.1457 3.65323 60.6288 3.55705C61.0897 3.46519 61.5738 3.26747 62.0384 3.22052C62.4861 3.17528 62.9797 3.38309 63.4379 3.38298C64.1235 3.3828 64.7452 3.12356 65.4102 3.02053Z" fill="var(--fill-0, white)"/>
<path id="Vector_3" d="M2.41078 6.24127C2.51134 6.22824 2.65455 6.20093 2.74709 6.25129C2.97408 6.37484 3.53981 6.91368 3.57591 7.1532C3.63477 7.5437 3.23976 8.03065 3.1671 8.41925C2.99343 9.34817 3.13362 10.3345 3.04692 11.2728C2.90089 12.8535 2.11367 12.9487 2.68238 14.8537C2.27196 16.1833 2.61432 17.1538 2.50576 18.4624C2.47319 18.855 2.16294 19.2116 2.1897 19.598C2.2232 20.0818 2.55153 20.8202 2.704 21.3084C2.37522 21.9434 2.52737 22.9857 2.53797 23.6845C2.3199 24.0171 2.05402 24.3188 1.79971 24.6241C1.76855 25.1997 1.79177 26.2386 1.96288 26.7818C2.26807 27.7507 2.49858 27.5435 2.51749 28.7905C2.53897 32.1486 2.52538 35.5068 2.47671 38.8646C2.46727 40.4244 2.56685 41.9876 2.51156 43.5468C2.47381 44.6116 1.79864 45.6279 1.85168 46.6967C1.88821 47.4326 2.42646 48.0126 2.49214 48.7725C2.5388 49.3123 2.53361 50.4713 2.35368 50.9641C2.30804 51.0891 2.21134 51.1996 2.12669 51.3004C1.91307 51.4385 1.65838 51.6248 1.40115 51.6485C1.32315 51.6556 1.25512 51.6208 1.19733 51.5707C0.967865 51.3716 0.80653 50.9432 0.755963 50.6521C0.691758 50.2826 0.749044 49.8394 0.7426 49.4606C0.720256 48.1476 0.750357 46.8476 0.702258 45.5353C0.675068 44.7934 0.755846 44.082 0.76603 43.3462C0.771356 42.961 0.670665 42.4418 0.77809 42.0785C0.899447 41.6682 1.27396 41.1851 1.56494 40.8722C1.19022 40.4777 0.843691 39.725 0.738618 39.1886C0.62004 38.5834 0.777795 37.9688 0.772658 37.3619L0.750895 30.111C0.750135 27.7273 0.668487 25.3393 0.682667 22.9562C0.688811 21.9241 0.762755 20.8946 0.787856 19.8636C0.800196 19.3566 0.660803 18.8533 0.691901 18.3464C0.75515 17.3153 1.33606 16.315 1.3685 15.3212C1.38532 14.806 1.17189 14.2819 1.15734 13.7593C1.12497 12.5961 1.3279 11.5078 1.37255 10.3592C1.41145 9.35871 0.982473 7.42758 1.57336 6.58378C1.76868 6.30481 2.10264 6.29184 2.41078 6.24127Z" fill="var(--fill-0, white)"/>
<path id="Vector_4" d="M52.4794 20.7328C52.5559 20.726 52.6465 20.7165 52.7222 20.736C53.22 20.8642 53.8149 21.8001 54.1761 22.1801C54.5163 22.5377 54.9397 22.8248 55.2967 23.168C55.8225 23.6737 56.3087 24.2391 56.8044 24.775C57.2479 25.2547 57.7309 25.7284 58.1312 26.2447C58.5599 26.7978 58.9191 27.4063 59.3288 27.9736C59.5065 28.2199 59.7591 28.4328 59.9131 28.6916C60.1219 29.042 60.1414 29.428 60.4004 29.7727C60.7178 30.1965 61.1381 30.5358 61.4608 30.9519C61.7171 31.2821 61.8321 31.7449 62.062 32.1065C62.5899 32.9379 63.3435 33.6899 63.7801 34.5593C64.4757 35.9435 64.549 37.4884 64.5669 39.0019C64.5722 39.4322 64.6217 39.9563 64.4725 40.3656C64.2821 40.8892 63.7453 41.6341 63.247 41.8783C63.1626 41.8772 63.0866 41.8668 63.0097 41.83C62.6542 41.6602 62.4428 41.2456 62.3136 40.8952C62.8035 39.1945 62.7966 37.7314 62.312 36.0285C62.1675 35.5212 62.0293 35.0316 61.7678 34.5701C61.3712 33.8716 60.818 33.2477 60.3677 32.5819C60.1451 32.2528 60.1456 31.8264 59.9363 31.486C59.6167 30.9669 59.1637 30.5361 58.7941 30.0535C58.4318 29.5807 58.1291 29.0647 57.7452 28.608C57.2215 27.9851 56.5397 27.5574 55.957 26.9997C55.3205 26.3902 54.7631 25.658 54.1693 25.004C53.2596 24.0028 52.0226 23.1709 51.5904 21.816C51.5267 21.6161 51.5073 21.4062 51.6077 21.2145C51.7783 20.8889 52.1566 20.8312 52.4794 20.7328Z" fill="var(--fill-0, white)"/>
<path id="Vector_5" d="M29.6622 3.42819C29.8374 3.41903 29.9712 3.41074 30.1353 3.48397C30.1712 3.523 30.8917 5.70275 30.9812 5.97708C31.1073 6.36352 31.1709 7.86824 31.0218 8.23495C30.9056 8.52093 30.6543 8.73883 30.5176 9.01489C30.3511 9.35065 30.2449 12.2714 30.3869 12.6685C30.5563 13.1425 30.9677 13.4171 31.1361 13.913C31.0223 14.3177 30.856 14.6846 30.7159 15.0781C30.4333 15.872 30.8689 15.6955 31.0992 16.2588C31.2933 16.7336 30.6196 17.1223 30.4652 17.5307C30.2386 18.1303 30.2766 24.1516 30.418 24.8616C30.5405 25.4762 30.9456 26.0816 31.2094 26.6487C31.1411 27.0373 31.0061 27.333 30.8142 27.6724C30.6446 27.8249 30.4803 28.0109 30.3001 28.1473C30.2482 28.1866 30.1612 28.2397 30.0957 28.231C29.93 28.2089 29.8297 28.1287 29.7357 27.9963C29.5208 27.6933 29.4119 27.2567 29.3595 26.8907C29.2692 26.2588 29.3422 25.5871 29.3305 24.9476C29.3186 24.2983 29.1937 23.6555 29.2975 23.0083C29.0552 22.5905 28.9211 22.1846 28.8348 21.712C28.7462 21.2261 28.7967 20.7215 28.7756 20.23C28.7425 19.456 28.5257 18.5526 28.6894 17.7909C28.8001 17.2756 29.2528 16.8896 29.3105 16.3609C29.468 14.9188 29.395 13.4596 29.3674 12.0135C29.2345 11.872 29.117 11.7021 29.0186 11.5345C28.6609 10.9255 28.5616 10.126 28.5894 9.42997C28.6004 9.15095 28.6429 8.84409 28.6153 8.5666C28.5836 8.24803 28.3728 7.91011 28.4665 7.58938C28.5601 7.26896 28.9186 7.13027 29.1877 6.98409C29.2183 6.59671 29.289 6.21923 29.3032 5.829C29.3266 5.18452 29.2704 4.50785 29.3712 3.87046C29.4047 3.65816 29.4931 3.55138 29.6622 3.42819Z" fill="var(--fill-0, white)"/>
<path id="Vector_6" d="M65.8431 8.70507C66.7327 8.78496 67.0454 9.27038 67.7251 9.40058C68.0853 9.46951 68.4408 9.39473 68.7403 9.6506C69.0451 9.91148 69.3989 10.4411 69.4227 10.8534C69.4274 10.9381 69.4032 11.0606 69.3415 11.1235C69.1964 11.2711 68.9844 11.2879 68.7883 11.3058C67.3734 11.4348 66.6515 10.4043 65.6653 10.4586C65.1596 10.4864 64.6855 10.6874 64.3454 11.0598C64.1086 11.3625 63.8101 11.5711 63.5312 11.8295C63.3076 12.036 63.1083 12.2707 62.8931 12.4858C62.6247 12.7538 62.3204 13.0311 61.9201 13.0304C61.8099 12.9715 61.7741 12.9581 61.7356 12.8302C61.5995 12.3727 62.0114 11.6367 62.2239 11.2419C62.6104 10.5241 63.0371 9.85906 63.8497 9.58036C64.1751 9.46856 64.5247 9.39589 64.8395 9.25815C65.2081 9.09694 65.4386 8.82684 65.8431 8.70507Z" fill="var(--fill-0, white)"/>
<path id="Vector_7" d="M50.1332 41.1841C50.1995 41.1834 50.2592 41.1905 50.3225 41.2121C50.5591 41.2926 50.6491 41.56 50.7467 41.7687C50.6524 42.0846 50.6085 42.4142 50.4312 42.6991C50.0493 43.3127 49.4493 43.7231 49.0416 44.3009C48.4869 45.087 48.2515 46.1201 47.4952 46.7634C47.3814 46.866 47.3518 46.9124 47.1941 46.9273L47.1142 46.8369C47.0673 46.6243 47.0908 46.4601 47.1409 46.2498C47.2902 45.6222 47.6446 45.111 47.8839 44.5287C48.0381 44.1537 48.0843 43.7388 48.2039 43.3521C48.5033 42.385 49.3048 41.7014 50.1332 41.1841Z" fill="var(--fill-0, white)"/>
</g>
</svg>
